<?xml version="1.0" encoding="UTF-8" standalone="no"?>
<!-- Created with Inkscape (http://www.inkscape.org/) -->

<svg
   width="74.699997"
   height="95.099998"
   id="svg2"
   version="1.1"
   inkscape:version="1.2.2 (b0a8486, 2022-12-01)"
   sodipodi:docname="U+1F02A_MJbaida_百搭_expenTo1024.svg"
   inkscape:export-filename="U+1F02A_MJbaida_百搭.png"
   inkscape:export-xdpi="96"
   inkscape:export-ydpi="96"
   xmlns:inkscape="http://www.inkscape.org/namespaces/inkscape"
   xmlns:sodipodi="http://sodipodi.sourceforge.net/DTD/sodipodi-0.dtd"
   xmlns="http://www.w3.org/2000/svg"
   xmlns:svg="http://www.w3.org/2000/svg"
   xmlns:rdf="http://www.w3.org/1999/02/22-rdf-syntax-ns#"
   xmlns:cc="http://creativecommons.org/ns#"
   xmlns:dc="http://purl.org/dc/elements/1.1/">
  <defs
     id="defs4" />
  <sodipodi:namedview
     id="base"
     pagecolor="#ffffff"
     bordercolor="#666666"
     borderopacity="1.0"
     inkscape:pageopacity="0.0"
     inkscape:pageshadow="2"
     inkscape:zoom="2"
     inkscape:cx="628.25"
     inkscape:cy="776.25"
     inkscape:document-units="px"
     inkscape:current-layer="layer1"
     showgrid="false"
     inkscape:window-width="1954"
     inkscape:window-height="1207"
     inkscape:window-x="315"
     inkscape:window-y="25"
     inkscape:window-maximized="0"
     inkscape:showpageshadow="2"
     inkscape:pagecheckerboard="0"
     inkscape:deskcolor="#d1d1d1" />
  <metadata
     id="metadata7">
    <rdf:RDF>
      <cc:Work
         rdf:about="">
        <dc:format>image/svg+xml</dc:format>
        <dc:type
           rdf:resource="http://purl.org/dc/dcmitype/StillImage" />
      </cc:Work>
    </rdf:RDF>
  </metadata>
  <g
     inkscape:label="Layer 1"
     inkscape:groupmode="layer"
     id="layer1"
     transform="translate(-599.49711,-446.85088)">
    <g
       transform="matrix(13.053641,0,0,10.213363,191.34225,446.81899)"
       style="font-style:normal;font-variant:normal;font-weight:normal;font-stretch:normal;font-size:100px;font-family:'Droid Serif';-inkscape-font-specification:'Droid Serif';fill:#000000;fill-opacity:1;stroke:none"
       id="text4545">
      <path
         d="m 59.96229,32.34346 c -2.9e-5,-0.533286 -0.233362,-1.433285 -0.7,-2.7 -0.400028,-1.266616 -0.733361,-2.133282 -1,-2.6 2.733303,5.2e-5 4.399968,-0.09995 5,-0.3 0.666633,-0.266614 1.266633,-1.03328 1.8,-2.3 1.399964,-3.333276 2.099964,-5.19994 2.1,-5.6 -3.6e-5,-0.866606 -0.533369,-1.299939 -1.6,-1.3 l -11.5,1.5 c -1.400022,-0.39994 -2.366688,-0.733273 -2.9,-1 -0.466687,-0.266606 -0.80002,-0.733272 -1,-1.4 l 34.4,-3.4 c 2.066611,6.6e-5 3.999942,0.833398 5.8,2.5 -0.200059,0.400063 -0.666726,0.700062 -1.4,0.9 l -19.9,0.5 2.1,2 -5.2,6.8 c 0.133298,0.266719 0.399964,0.400053 0.8,0.4 6.733291,-1.066613 10.16662,-1.599946 10.3,-1.6 0.733286,5.4e-5 1.766619,0.400054 3.1,1.2 1.399949,0.733386 2.099948,1.300052 2.1,1.7 -5.2e-5,0.133384 -0.166718,0.400051 -0.5,0.8 -0.333384,0.40005 -0.666717,1.166716 -1,2.3 -0.333383,1.13338 -0.533383,2.566712 -0.6,4.3 -4.9e-5,0.333377 -4.9e-5,1.233376 0,2.7 -4.9e-5,1.40004 -0.03338,2.266706 -0.1,2.6 -4.9e-5,0.266705 -0.06672,0.933371 -0.2,2 -0.133382,1.000036 -0.333382,1.733368 -0.6,2.2 -0.266715,0.466701 -0.633381,1.0667 -1.1,1.8 -0.466714,0.666699 -1.066713,1.333365 -1.8,2 l -1.6,-4.6 c -0.46671,-1.06663 -1.566709,-1.599963 -3.3,-1.6 l -8.6,0.8 c -0.600032,1.266701 -0.966698,2.433367 -1.1,3.5 -1.133363,-0.466634 -1.766696,-1.366633 -1.9,-2.7 -2.9e-5,-0.06663 -2.9e-5,-0.233298 0,-0.5 0.06664,-0.333297 0.09997,-0.76663 0.1,-1.3 -2.9e-5,-0.533296 -2.9e-5,-1.166629 0,-1.9 v -7.7 m 21.1,25.4 c 0.199949,2.1e-5 0.666616,-0.09998 1.4,-0.3 0.799947,-0.266645 1.299947,-0.399978 1.5,-0.4 0.999946,2.2e-5 1.966611,0.400021 2.9,1.2 -0.466722,0.533353 -1.666721,0.90002 -3.6,1.1 -1.866717,0.200019 -2.966716,0.433352 -3.3,0.7 -0.133382,1.9e-5 -1.100048,1.233351 -2.9,3.7 -4.6e-5,-0.06665 0.16662,-1.233317 0.5,-3.5 -0.200047,-0.133315 -0.966713,-0.199981 -2.3,-0.2 -1.333377,1.9e-5 -2.766708,0.133352 -4.3,0.4 -0.266707,0.933351 -0.566706,2.333349 -0.9,4.2 -0.466706,-0.466652 -0.866705,-1.533318 -1.2,-3.2 -0.400038,-0.333316 -0.733371,-0.499982 -1,-0.5 -0.13337,1.8e-5 -0.466703,0.06668 -1,0.2 -0.466702,0.133351 -0.766702,0.200018 -0.9,0.2 -0.400035,1.8e-5 -0.900034,-0.199982 -1.5,-0.6 v -0.3 c 0.999965,-0.266648 2.266631,-0.699981 3.8,-1.3 -3.8e-5,-0.466646 -0.0667,-0.866646 -0.2,-1.2 -0.133371,-0.333312 -0.366704,-0.766645 -0.7,-1.3 -0.33337,-0.599977 -0.600036,-1.099977 -0.8,-1.5 0.46663,-0.06664 0.86663,-0.09998 1.2,-0.1 1.799961,2.4e-5 2.69996,0.833356 2.7,2.5 -4e-5,0.400021 -0.06671,0.866687 -0.2,1.4 0.133294,0.06669 0.533293,0.10002 1.2,0.1 -4.1e-5,-0.06665 2.033291,-0.29998 6.1,-0.7 0.733286,-0.799979 1.099952,-2.099977 1.1,-3.9 -4.8e-5,-0.666642 -0.06672,-1.433307 -0.2,-2.3 h 2.1 c 0.266617,2.7e-5 0.933283,0.566693 2,1.7 -0.466718,0.666691 -1.100051,1.700023 -1.9,3.1 -5e-5,0.533355 0.133283,0.800021 0.4,0.8 m 11.5,18 c -1.200061,0.733336 -2.866726,1.100002 -5,1.1 -2.266721,2e-6 -4.500052,-1.166663 -6.7,-3.5 l -6.2,-6.9 -4.6,6.7 c -1.000038,1.266671 -2.000037,2.36667 -3,3.3 -1.000035,0.866668 -1.800035,1.466668 -2.4,1.8 -0.533367,0.266667 -1.133366,0.533333 -1.8,0.8 -0.666698,0.266666 -1.033364,0.433333 -1.1,0.5 v -0.7 c 5.733297,-4.199996 9.333293,-9.399991 10.8,-15.6 0.666624,0.200015 1.43329,0.600015 2.3,1.2 -4.4e-5,0.200014 0.09996,0.500014 0.3,0.9 0.933288,1.133346 1.933287,2.166678 3,3.1 1.133285,0.933343 2.09995,1.700009 2.9,2.3 0.799949,0.600008 1.899948,1.23334 3.3,1.9 1.399945,0.600006 2.333277,1.000005 2.8,1.2 0.533276,0.200005 1.533275,0.566671 3,1.1 1.533272,0.533337 2.333272,0.800003 2.4,0.8 m -14,-2.2 c -4.8e-5,0.533338 -0.700047,1.033338 -2.1,1.5 -1.400044,0.400003 -2.400043,0.600003 -3,0.6 -0.600042,3e-6 -1.433375,-0.33333 -2.5,-1 2.73329,-1.399994 4.733288,-2.099994 6,-2.1 1.066619,6e-6 1.599952,0.333339 1.6,1 m 1,4.7 c 0.79995,0.06667 1.766616,0.433334 2.9,1.1 1.199947,0.733332 1.799946,1.433331 1.8,2.1 -5.4e-5,0.133331 -0.46672,0.766663 -1.4,1.9 -0.866718,1.199994 -1.300051,2.033327 -1.3,2.5 -5.1e-5,0.466659 0.199949,0.999992 0.6,1.6 -2.466716,0.333324 -6.366712,0.799991 -11.7,1.4 -0.266706,0.266656 -0.566706,0.633323 -0.9,1.1 -0.333372,-1.533343 -0.666705,-2.900008 -1,-4.1 -0.266704,-1.133339 -0.500037,-2.033338 -0.7,-2.7 -0.13337,-0.600004 -0.300037,-1.100003 -0.5,-1.5 -0.13337,-0.400002 -0.23337,-0.666669 -0.3,-0.8 -0.0667,-0.133335 -0.13337,-0.266668 -0.2,-0.4 -3.6e-5,-0.06667 -3.6e-5,-0.133335 0,-0.2 -3.6e-5,-0.666667 0.16663,-1 0.5,-1 0.06663,0 0.499963,0.1 1.3,0.3 0.799961,0.266666 1.333294,0.399999 1.6,0.4 l 9.3,-1.7 m -21.3,-12.3 c -0.333361,1.3e-5 -1.13336,0.06668 -2.4,0.2 -1.200024,0.133346 -1.833357,0.200013 -1.9,0.2 -0.466689,1.3e-5 -1.166689,-0.199987 -2.1,-0.6 2.199977,-0.799986 4.399974,-1.666652 6.6,-2.6 -2.8e-5,-2.066649 -0.166694,-5.199979 -0.5,-9.4 -0.266694,-0.466641 -0.400027,-0.733307 -0.4,-0.8 v -1.4 c 1.466638,0.400027 2.833304,0.900026 4.1,1.5 -0.0667,2.6e-5 -0.566697,2.100024 -1.5,6.3 l 0.1,3.9 c 0.666636,-0.266651 1.233303,-0.399984 1.7,-0.4 0.533302,1.6e-5 1.366634,0.133349 2.5,0.4 -0.0667,0.466682 -1.533366,1.300014 -4.4,2.5 -2.9e-5,1.133345 0.133304,2.733344 0.4,4.8 1.799968,-1.19999 3.199967,-1.833323 4.2,-1.9 -3.000031,2.466674 -4.500029,3.900006 -4.5,4.3 v 13 c -0.0667,-7e-6 -0.400029,0.599992 -1,1.8 -0.533361,1.19999 -0.833361,1.799989 -0.9,1.8 -0.400027,-1.1e-5 -0.966693,-0.533343 -1.7,-1.6 l -2.6,-3.5 c 0.13331,-6e-6 0.43331,0.03333 0.9,0.1 0.533309,0.06666 0.866642,0.09999 1,0.1 0.466641,-6e-6 0.833307,-0.100006 1.1,-0.3 0.26664,-0.200005 0.56664,-0.966671 0.9,-2.3 0.333306,-1.266669 0.499972,-3.1 0.5,-5.5 -2.8e-5,-1.466663 -0.03336,-2.233329 -0.1,-2.3 l -8,5.7 c -1.000019,-10e-7 -1.833351,-0.833334 -2.5,-2.5 3.333313,-1.066664 6.866643,-3.033329 10.6,-5.9 l -0.1,-5.6 m 16.2,-32.3 c -0.66671,0.400045 -1.433376,0.733378 -2.3,1 -0.866707,0.200044 -1.566707,0.333377 -2.1,0.4 -0.533372,0.06671 -1.700038,0.133377 -3.5,0.2 -1.800034,0.06671 -3.133366,0.133377 -4,0.2 v 5.7 h 2.9 l 6.4,-1.4 c 1.799957,0.400039 3.099956,1.033371 3.9,1.9 0.866621,-2.733293 1.299954,-6.199957 1.3,-10.4 -4.6e-5,-1.666617 -0.13338,-2.79995 -0.4,-3.4 -0.266712,-0.599948 -0.966712,-0.899948 -2.1,-0.9 l -12.2,1.5 v 5.3 l 8.8,-1.4 c 0.399959,0.06671 0.833292,0.166713 1.3,0.3 0.466624,0.06671 0.766624,0.133379 0.9,0.2 0.199957,4.6e-5 0.399957,0.06671 0.6,0.2 0.199957,0.133379 0.366623,0.333379 0.5,0.6 m 0.3,53.2 c 1.199955,-8e-6 2.233287,-0.366674 3.1,-1.1 0.933285,-0.666673 1.399951,-1.866672 1.4,-3.6 -4.9e-5,-0.466669 -0.133382,-0.966669 -0.4,-1.5 h -5.9 c -0.800041,-2e-6 -1.80004,0.233331 -3,0.7 v 5.5 c 1.133293,-8e-6 2.033292,-8e-6 2.7,0 0.733291,-8e-6 1.23329,-8e-6 1.5,0 0.33329,-8e-6 0.533289,-8e-6 0.6,0 m 32.9,3.9 c -8e-5,4.799983 -2.26674,7.199981 -6.8,7.2 h -61.1 c -4.533338,-1.9e-5 -6.800002,-2.400017 -6.8,-7.2 v -80.7 c -2e-6,-4.7999263 2.266662,-7.1999239 6.8,-7.1999999 h 61.1 c 4.53326,7.6e-5 6.79992,2.4000736 6.8,7.1999999 v 80.7 m -1.7,0 v -80.7 c -8e-5,-3.6665941 -1.70007,-5.4999256 -5.1,-5.4999999 h -61.1 c -3.400006,7.43e-5 -5.100004,1.8334058 -5.1,5.4999999 v 80.7 c -4e-6,3.733318 1.699994,5.599983 5.1,5.6 h 61.1 c 3.39993,-1.7e-5 5.09992,-1.866682 5.1,-5.6"
         id="path4550" />
    </g>
  </g>
</svg>
